<svg width="21" height="21" viewBox="0 0 21 21" fill="none" xmlns="http://www.w3.org/2000/svg">
<path d="M19.2861 11.344L20.4371 5.04378C20.451 4.96247 20.4472 4.87911 20.4261 4.79937C20.4049 4.71964 20.3668 4.64538 20.3144 4.58164C20.2627 4.51629 20.1967 4.46362 20.1215 4.42766C20.0463 4.3917 19.9638 4.3734 19.8805 4.37415H4.50216L4.01157 1.68618C3.95827 1.38223 3.79943 1.10682 3.563 0.908429C3.32657 0.710033 3.02772 0.601368 2.71904 0.601563H1.01138C0.861253 0.601563 0.71727 0.661183 0.611111 0.767307C0.504952 0.873432 0.445312 1.01737 0.445312 1.16745C0.445312 1.31753 0.504952 1.46147 0.611111 1.56759C0.71727 1.67372 0.861253 1.73334 1.01138 1.73334H2.71904C2.76156 1.73461 2.8024 1.75021 2.83494 1.7776C2.86748 1.80499 2.8898 1.84257 2.89829 1.88424L5.51166 16.2389C5.18849 16.4989 4.93655 16.8366 4.77939 17.2203C4.62223 17.6041 4.56498 18.0214 4.61301 18.4333C4.66104 18.8452 4.81276 19.2382 5.05401 19.5755C5.29525 19.9128 5.61812 20.1835 5.99244 20.3622C6.36676 20.5409 6.78029 20.6218 7.19438 20.5973C7.60846 20.5728 8.00957 20.4437 8.3602 20.2221C8.71082 20.0006 8.99952 19.6937 9.19928 19.3303C9.39905 18.9669 9.50336 18.5588 9.50247 18.1441C9.50436 17.6758 9.36996 17.217 9.11565 16.8237H14.7952C14.5409 17.217 14.4065 17.6758 14.4084 18.1441C14.4084 18.6291 14.5523 19.1032 14.8218 19.5065C15.0914 19.9097 15.4745 20.224 15.9227 20.4096C16.3709 20.5952 16.8641 20.6438 17.34 20.5492C17.8158 20.4545 18.2529 20.221 18.5959 19.878C18.939 19.5351 19.1726 19.0982 19.2673 18.6225C19.3619 18.1468 19.3133 17.6538 19.1277 17.2057C18.942 16.7576 18.6276 16.3746 18.2242 16.1052C17.8208 15.8357 17.3466 15.6919 16.8614 15.6919H6.55889L6.07773 13.0511H17.2482C17.7341 13.05 18.2041 12.8785 18.5765 12.5666C18.9488 12.2546 19.2 11.822 19.2861 11.344V11.344ZM8.37032 18.1441C8.37032 18.4052 8.29286 18.6605 8.14772 18.8777C8.00259 19.0948 7.7963 19.264 7.55495 19.364C7.3136 19.4639 7.04802 19.4901 6.79181 19.4391C6.53559 19.3882 6.30024 19.2624 6.11552 19.0778C5.93079 18.8931 5.805 18.6578 5.75403 18.4017C5.70307 18.1456 5.72922 17.8801 5.8292 17.6388C5.92917 17.3975 6.09846 17.1913 6.31567 17.0462C6.53288 16.9011 6.78825 16.8237 7.04949 16.8237C7.3998 16.8237 7.73575 16.9628 7.98346 17.2104C8.23116 17.458 8.37032 17.7939 8.37032 18.1441V18.1441ZM18.1822 18.1441C18.1822 18.4052 18.1048 18.6605 17.9596 18.8777C17.8145 19.0948 17.6082 19.264 17.3669 19.364C17.1255 19.4639 16.8599 19.4901 16.6037 19.4391C16.3475 19.3882 16.1122 19.2624 15.9274 19.0778C15.7427 18.8931 15.6169 18.6578 15.566 18.4017C15.515 18.1456 15.5411 17.8801 15.6411 17.6388C15.7411 17.3975 15.9104 17.1913 16.1276 17.0462C16.3448 16.9011 16.6002 16.8237 16.8614 16.8237C17.2117 16.8237 17.5477 16.9628 17.7954 17.2104C18.0431 17.458 18.1822 17.7939 18.1822 18.1441V18.1441ZM4.70972 5.50593H19.2012L18.1728 11.1459C18.1332 11.3624 18.0191 11.5583 17.8502 11.6995C17.6813 11.8408 17.4684 11.9185 17.2482 11.9193H5.87961L4.70972 5.50593Z" fill="black"/>
</svg>
