<svg width="37" height="28" viewBox="0 0 37 28" fill="none" xmlns="http://www.w3.org/2000/svg">
<path d="M34.3571 0H2.64286C1.94193 0 1.26971 0.294999 0.774075 0.820101C0.278443 1.3452 0 2.05739 0 2.8V25.2C0 25.9426 0.278443 26.6548 0.774075 27.1799C1.26971 27.705 1.94193 28 2.64286 28H34.3571C35.0581 28 35.7303 27.705 36.2259 27.1799C36.7216 26.6548 37 25.9426 37 25.2V2.8C37 2.05739 36.7216 1.3452 36.2259 0.820101C35.7303 0.294999 35.0581 0 34.3571 0V0ZM31.45 2.8L18.5 12.292L5.55 2.8H31.45ZM2.64286 25.2V4.074L17.7468 15.148C17.968 15.3106 18.2308 15.3977 18.5 15.3977C18.7692 15.3977 19.032 15.3106 19.2532 15.148L34.3571 4.074V25.2H2.64286Z" fill="black"/>
</svg>
