<svg width="34" height="34" viewBox="0 0 34 34" fill="none" xmlns="http://www.w3.org/2000/svg">
<path d="M24.6166 33.6669C25.0593 33.6695 25.498 33.5838 25.9072 33.415C26.3164 33.2462 26.6879 32.9975 27 32.6836L31.5166 28.1669C31.8271 27.8546 32.0013 27.4322 32.0013 26.9919C32.0013 26.5516 31.8271 26.1292 31.5166 25.8169L24.85 19.1502C24.5377 18.8398 24.1153 18.6656 23.675 18.6656C23.2347 18.6656 22.8122 18.8398 22.5 19.1502L19.8333 21.8002C17.9871 21.308 16.2772 20.4017 14.8333 19.1502C13.5852 17.7041 12.6794 15.995 12.1833 14.1502L14.8333 11.4836C15.1437 11.1713 15.318 10.7489 15.318 10.3086C15.318 9.86826 15.1437 9.44584 14.8333 9.13357L8.16664 2.4669C7.85437 2.15648 7.43195 1.98225 6.99164 1.98225C6.55133 1.98225 6.12891 2.15648 5.81664 2.4669L1.31664 7.00024C1.00269 7.31231 0.75405 7.68378 0.585218 8.09298C0.416387 8.50218 0.330751 8.94091 0.333308 9.38357C0.484512 15.7874 3.04343 21.899 7.49997 26.5002C12.1012 30.9568 18.2128 33.5157 24.6166 33.6669V33.6669ZM6.99997 6.0169L11.3166 10.3336L9.16664 12.4836C8.96301 12.6743 8.81052 12.9131 8.72316 13.1781C8.6358 13.4431 8.61637 13.7258 8.66664 14.0002C9.28959 16.7842 10.6085 19.3646 12.5 21.5002C14.6339 23.3941 17.215 24.7134 20 25.3336C20.2703 25.3901 20.5504 25.3785 20.8151 25.3C21.0798 25.2214 21.3209 25.0783 21.5166 24.8836L23.6666 22.6836L27.9833 27.0002L24.65 30.3336C19.1229 30.1913 13.8491 27.9855 9.86664 24.1502C6.02149 20.1661 3.80932 14.8854 3.66664 9.35024L6.99997 6.0169ZM30.3333 15.3336H33.6666C33.7099 13.3519 33.3514 11.382 32.6129 9.54258C31.8744 7.70316 30.7711 6.03231 29.3695 4.63073C27.9679 3.22914 26.297 2.12584 24.4576 1.38732C22.6182 0.648803 20.6483 0.29035 18.6666 0.333569V3.6669C20.2131 3.61341 21.7541 3.87859 23.1938 4.44596C24.6335 5.01333 25.941 5.87077 27.0352 6.96497C28.1294 8.05917 28.9869 9.36674 29.5542 10.8064C30.1216 12.2461 30.3868 13.7871 30.3333 15.3336Z" fill="black"/>
</svg>
